<svg width="30" height="49" viewBox="0 0 30 49" fill="none" xmlns="http://www.w3.org/2000/svg">
<path d="M6 20H19V18.1176H6V20ZM19 9.64706H15.2857V4H9.71429V9.64706H6L12.5 16.2353L19 9.64706Z" fill="#002CFB"/>
<path d="M7.5 35L14.5 48H25.5L26.5 47L29 40L28.5 31L26.5 30.5L25 34L24.5 29H22.5L21.5 33.5L20.5 27.5H18.5L17.5 31.5V22.5L15.5 21.5L14.5 23L14 37L9 33H7.5V35Z" fill="white"/>
<path d="M27.1383 28.9501C26.7378 28.9501 26.3564 29.0357 26.0101 29.1894C25.589 28.1004 24.5562 27.3285 23.351 27.3285C22.9034 27.3285 22.4793 27.4351 22.1017 27.6247C21.6238 26.6818 20.666 26.0361 19.5639 26.0361C19.24 26.0361 18.929 26.0926 18.6384 26.1954V22.9489C18.6384 21.323 17.3547 20 15.7766 20C14.1986 20 12.915 21.323 12.915 22.9489V34.6312L10.8539 32.218C10.8395 32.2015 10.8248 32.1853 10.8095 32.1698C10.2683 31.6156 9.54808 31.3083 8.78145 31.3045C8.77649 31.3045 8.77181 31.3045 8.76685 31.3045C8.00203 31.3045 7.28596 31.6067 6.74927 32.1563C5.80298 33.125 5.75059 34.5629 6.60596 36.1019C7.71322 38.0928 8.91684 39.9701 9.97887 41.6266C10.7549 42.8372 11.4881 43.9806 12.024 44.926C12.4888 45.7463 13.7224 48.407 13.735 48.4339C13.8951 48.7796 14.2357 49 14.6093 49H26.8478C27.2683 49 27.6405 48.7224 27.7694 48.3131C27.9976 47.5867 30 41.1463 30 38.659V31.8993C29.9998 30.273 28.7162 28.9501 27.1383 28.9501ZM26.2128 31.8992C26.2128 31.3653 26.628 30.931 27.1383 30.931C27.6489 30.931 28.0641 31.3653 28.0641 31.8992V38.6589C28.0641 40.3118 26.8228 44.7555 26.1378 47.0189H15.2197C14.8183 46.1644 14.0662 44.5814 13.6984 43.9321C13.1358 42.9393 12.3884 41.7738 11.5972 40.5396C10.551 38.908 9.36527 37.0585 8.28826 35.1222C8.00718 34.6163 7.74957 33.9343 8.11843 33.5568C8.29046 33.3804 8.52212 33.2882 8.7721 33.2855C9.01607 33.2867 9.24553 33.3809 9.42138 33.5512L13.1543 37.9212C13.4195 38.232 13.8458 38.3416 14.2231 38.1966C14.6007 38.0515 14.8508 37.6819 14.8508 37.2693V22.9489C14.8508 22.4151 15.2661 21.981 15.7767 21.981C16.2873 21.981 16.7027 22.4151 16.7027 22.9489V32.1968C16.7027 32.7437 17.1362 33.1872 17.6706 33.1872C18.205 33.1872 18.6384 32.7437 18.6384 32.1968V28.9847C18.6384 28.4512 19.0537 28.0172 19.564 28.0172C20.0746 28.0172 20.4898 28.4512 20.4898 28.9847V33.4887C20.4898 34.036 20.9232 34.4792 21.4576 34.4792C21.9921 34.4792 22.4255 34.036 22.4255 33.4887V30.2774C22.4255 29.7436 22.8408 29.3094 23.3511 29.3094C23.8618 29.3094 24.2772 29.7436 24.2772 30.2774V34.7816C24.2772 35.3285 24.7106 35.7722 25.2451 35.7722C25.7796 35.7722 26.213 35.3285 26.213 34.7816V31.8992H26.2128Z" fill="black"/>
</svg>
